#!OML:ASF H:\GeneralSubjects\Female5\Project 1\Capture day 1\Session 1\Female5.ASF
:FULLY-SPECIFIED
:DEGREES
584
root 26.5792 15.3803 13.6387 -167.802 8.27269 -179.472
lowerback 12.8019 0.934389 -4.47318
upperback -13.5811 2.68364 4.4114
thorax -23.8408 3.1342 6.69485
lowerneck -10.0399 1.98459 6.07344
upperneck 40.2094 13.4809 -10.6344
head 17.8794 7.6125 -2.79346
rclavicle 2.06736e-014 -4.6118e-014
rhumerus -62.358 23.8265 -89.4678
rradius 31.4662
rwrist -12.9285
rhand -25.1302 -20.154
rfingers 7.12502
rthumb 1.38578 -50.1293
lclavicle 2.06736e-014 -4.6118e-014
lhumerus -63.3798 7.51349 70.2691
lradius 30.5057
lwrist -5.09311
lhand -29.2443 28.1154
lfingers 7.12502
lthumb -2.58764 58.0795
rfemur 14.1659 12.3127 36.0067
rtibia 5.96325
rfoot -22.1215 -15.4651
rtoes -10.8374
lfemur -38.8618 -18.2106 -21.888
ltibia 19.6027
lfoot -14.018 19.5757
ltoes -56.3634
585
root 26.5767 15.4101 13.3411 -168.192 8.0894 -179.431
lowerback 12.808 0.897217 -4.10329
upperback -13.5609 2.74963 4.4927
thorax -23.8133 3.10957 6.5495
lowerneck -9.83157 1.8935 5.97785
upperneck 40.3548 13.5835 -10.7236
head 17.9332 7.68589 -2.79548
rclavicle -1.78906e-015 -6.67916e-014
rhumerus -62.5552 23.5448 -88.8413
rradius 31.4904
rwrist -13.1428
rhand -24.799 -20.2703
rfingers 7.12502
rthumb 1.70573 -50.2432
lclavicle -1.78906e-015 -6.67916e-014
lhumerus -63.4335 7.10245 71.0732
lradius 30.9691
lwrist -4.58848
lhand -29.2071 28.4597
lfingers 7.12502
lthumb -2.55173 58.4242
rfemur 13.7484 9.89834 34.7883
rtibia 8.73294
rfoot -19.3798 -13.4646
rtoes -9.17421
lfemur -37.9712 -17.1663 -23.0623
ltibia 21.3533
lfoot -13.6933 17.4194
ltoes -56.0277
586
root 26.5744 15.4412 13.0513 -168.662 7.87081 -179.546
lowerback 12.9701 0.838151 -3.84381
upperback -13.5514 2.72974 4.50854
thorax -23.8972 3.0583 6.41972
lowerneck -9.57103 1.78399 5.99621
upperneck 40.4864 13.6678 -10.8993
head 17.9832 7.76488 -2.86394
rclavicle -1.51076e-014 9.54166e-014
rhumerus -62.564 23.1282 -88.1179
rradius 31.3722
rwrist -13.0503
rhand -24.7051 -20.187
rfingers 7.12502
rthumb 1.79637 -50.1592
lclavicle -1.51076e-014 9.54166e-014
lhumerus -63.6719 7.13175 71.2056
lradius 31.4735
lwrist -5.19302
lhand -29.628 28.3606
lfingers 7.12502
lthumb -2.95822 58.3198
rfemur 12.9469 7.13601 33.1532
rtibia 12.0492
rfoot -14.8776 -13.1579
rtoes -15.1096
lfemur -37.0574 -16.0625 -24.434
ltibia 23.2228
lfoot -13.8464 14.9517
ltoes -55.4465
587
root 26.5693 15.4737 12.7636 -169.261 7.67459 -179.844
lowerback 13.2903 0.775139 -3.73858
upperback -13.55 2.63878 4.46202
thorax -24.0979 2.9945 6.33097
lowerneck -9.24021 1.672 6.09997
upperneck 40.6194 13.7408 -11.0904
head 18.0231 7.85743 -2.96027
rclavicle 6.36111e-015 -1.74931e-014
rhumerus -62.4296 22.5863 -87.2845
rradius 31.1184
rwrist -12.8288
rhand -24.8178 -19.9664
rfingers 7.12502
rthumb 1.6875 -49.9395
lclavicle 6.36111e-015 -1.74931e-014
lhumerus -63.5042 6.44754 72.0568
lradius 31.4167
lwrist -4.4205
lhand -29.6765 28.1724
lfingers 7.12502
lthumb -3.00509 58.1309
rfemur 11.8955 4.17082 31.1295
rtibia 15.9572
rfoot -9.61148 -13.0321
rtoes -18.332
lfemur -34.8876 -15.8226 -25.7791
ltibia 22.9841
lfoot -14.2682 13.4304
ltoes -53.8613
588
root 26.5615 15.5129 12.4777 -169.935 7.53052 -180.234
lowerback 13.5552 0.758283 -3.72944
upperback -13.4582 2.55924 4.40248
thorax -24.1349 2.9324 6.28111
lowerneck -9.0529 1.52488 6.26274
upperneck 40.807 13.8069 -11.3819
head 18.1541 7.94104 -3.11156
rclavicle 1.03368e-014 -1.74931e-014
rhumerus -61.9146 21.8403 -85.9853
rradius 30.8306
rwrist -12.8254
rhand -24.9423 -19.3735
rfingers 7.12502
rthumb 1.56726 -49.3475
lclavicle 1.03368e-014 -1.74931e-014
lhumerus -63.2733 6.14879 72.3792
lradius 31.435
lwrist -4.28452
lhand -29.5037 27.5566
lfingers 7.12502
lthumb -2.8382 57.5174
rfemur 10.5502 1.41874 28.9735
rtibia 20.6326
rfoot -4.93653 -12.993
rtoes -13.1875
lfemur -32.3613 -16.0158 -27.0405
ltibia 22.2903
lfoot -15.3668 12.1131
ltoes -51.61
589
root 26.5566 15.556 12.2023 -170.555 7.40169 -180.582
lowerback 13.9701 0.709525 -3.92561
upperback -13.4322 2.43739 4.49422
thorax -24.3978 2.93322 6.5502
lowerneck -8.75871 1.41209 6.23596
upperneck 40.9499 13.9129 -11.5731
head 18.2082 8.02601 -3.17758
rclavicle 2.38542e-015 -4.29375e-014
rhumerus -61.5856 21.3831 -84.6331
rradius 30.757
rwrist -13.1433
rhand -25.0863 -18.7893
rfingers 7.12502
rthumb 1.42824 -48.7643
lclavicle 2.38542e-015 -4.29375e-014
lhumerus -63.1925 5.87393 72.889
lradius 31.3607
lwrist -4.17187
lhand -29.4926 27.1734
lfingers 7.12502
lthumb -2.82745 57.1344
rfemur 8.76163 -0.833464 27.0952
rtibia 25.9064
rfoot -1.03024 -13.8612
rtoes -6.59035
lfemur -29.8436 -16.2162 -28.0999
ltibia 21.4651
lfoot -16.5514 10.6117
ltoes -49.4121
590
root 26.5537 15.5959 11.938 -171.129 7.32287 -180.988
lowerback 14.1509 0.732684 -4.02462
upperback -13.2551 2.35812 4.42183
thorax -24.2538 2.87049 6.55009
lowerneck -8.70976 1.38175 6.08244
upperneck 40.9102 13.7479 -11.3931
head 18.1029 7.9417 -3.10214
rclavicle 1.78906e-014 -6.36111e-014
rhumerus -60.9732 20.8419 -83.6951
rradius 30.7684
rwrist -13.2402
rhand -25.4445 -19.0095
rfingers 7.12502
rthumb 1.08226 -48.9865
lclavicle 1.78906e-014 -6.36111e-014
lhumerus -62.5341 5.29604 73.5552
lradius 31.4084
lwrist -3.72977
lhand -29.3507 27.1559
lfingers 7.12502
lthumb -2.69039 57.1187
rfemur 6.63617 -2.74638 25.3585
rtibia 31.3036
rfoot 3.35484 -15.2026
rtoes -5.57302
lfemur -27.4638 -15.9586 -29.2867
ltibia 20.6705
lfoot -17.0155 9.42858
ltoes -48.9108
